<svg width="155" height="27" viewBox="0 0 155 27" fill="none" xmlns="http://www.w3.org/2000/svg">
<path d="M0.0500002 26.35L0.1 5.25C0.1 4.31667 0.0833335 3.51667 0.0500002 2.85C0.0500002 2.15 0.0333335 1.7 1.19209e-07 1.5C0.233333 1.43333 0.7 1.36667 1.4 1.3C2.1 1.23333 2.9 1.18333 3.8 1.15C4.7 1.08333 5.61667 1.03333 6.55 1C7.51667 0.933333 8.38333 0.899999 9.15 0.899999C11.85 0.899999 13.95 1.26667 15.45 2C16.9833 2.7 18.0667 3.81667 18.7 5.35C19.3333 6.88333 19.5833 8.86667 19.45 11.3C19.3833 13.7 19.0667 15.6333 18.5 17.1C17.9333 18.5333 17.0167 19.5833 15.75 20.25C14.4833 20.8833 12.75 21.2 10.55 21.2C9.21667 21.2 8 21.0667 6.9 20.8C5.83333 20.5333 4.96667 20.0833 4.3 19.45C3.63333 18.7833 3.2 17.8333 3 16.6L3.6 16.05V26.35H0.0500002ZM9.85 19.1C11.9167 19.1 13.45 18.4833 14.45 17.25C15.45 16.0167 15.95 13.9333 15.95 11C16.0167 8.03333 15.55 5.95 14.55 4.75C13.55 3.55 11.75 2.95 9.15 2.95C8.65 2.95 8.01667 2.96667 7.25 3C6.51667 3.03333 5.8 3.08333 5.1 3.15C4.43333 3.18333 3.93333 3.23333 3.6 3.3V13.3C3.6 14.8667 3.85 16.0667 4.35 16.9C4.88333 17.7333 5.61667 18.3167 6.55 18.65C7.48333 18.95 8.58333 19.1 9.85 19.1ZM28.207 21H26.007C25.5737 21 25.2404 20.9 25.007 20.7C24.807 20.4667 24.707 20.05 24.707 19.45V2.05C25.4404 1.81667 26.4404 1.56667 27.707 1.3C29.007 1.03333 30.607 0.899999 32.507 0.899999C34.307 0.899999 35.7237 1.03333 36.757 1.3C37.8237 1.53333 38.5904 1.86667 39.057 2.3C39.557 2.73333 39.8737 3.26667 40.007 3.9C40.1737 4.5 40.257 5.18333 40.257 5.95H36.907L36.857 5.25C36.8237 4.48333 36.5737 3.93333 36.107 3.6C35.6404 3.23333 35.0904 3.01667 34.457 2.95C33.8237 2.85 33.1904 2.8 32.557 2.8C31.5904 2.8 30.7237 2.88333 29.957 3.05C29.2237 3.21667 28.6404 3.43333 28.207 3.7V21ZM53.4383 21.3C51.9049 21.3 50.5216 21.1833 49.2883 20.95C48.0883 20.7167 47.0383 20.25 46.1383 19.55C45.2716 18.85 44.6049 17.8167 44.1383 16.45C43.6716 15.0833 43.4383 13.2833 43.4383 11.05C43.4383 8.81667 43.6716 7.01667 44.1383 5.65C44.6049 4.28333 45.2716 3.25 46.1383 2.55C47.0383 1.85 48.0883 1.38333 49.2883 1.15C50.5216 0.916666 51.9049 0.799999 53.4383 0.799999C54.9383 0.799999 56.2883 0.916666 57.4883 1.15C58.7216 1.38333 59.7716 1.85 60.6383 2.55C61.5049 3.25 62.1716 4.28333 62.6383 5.65C63.1049 7.01667 63.3383 8.81667 63.3383 11.05C63.3383 13.3167 63.1049 15.1333 62.6383 16.5C62.1716 17.8667 61.5049 18.9 60.6383 19.6C59.7716 20.2667 58.7216 20.7167 57.4883 20.95C56.2883 21.1833 54.9383 21.3 53.4383 21.3ZM53.4383 19.35C54.7716 19.35 55.9049 19.15 56.8383 18.75C57.8049 18.35 58.5383 17.5667 59.0383 16.4C59.5383 15.2333 59.7883 13.45 59.7883 11.05C59.7883 8.65 59.5383 6.86667 59.0383 5.7C58.5383 4.53333 57.8049 3.75 56.8383 3.35C55.9049 2.95 54.7716 2.75 53.4383 2.75C52.1049 2.75 50.9549 2.95 49.9883 3.35C49.0549 3.75 48.3216 4.53333 47.7883 5.7C47.2883 6.86667 47.0383 8.65 47.0383 11.05C47.0383 13.45 47.2883 15.2333 47.7883 16.4C48.3216 17.5667 49.0549 18.35 49.9883 18.75C50.9549 19.15 52.1049 19.35 53.4383 19.35ZM75.5547 21.2C74.988 21.2 74.2714 21.1833 73.4047 21.15C72.5714 21.1167 71.7047 21.05 70.8047 20.95C69.938 20.8167 69.1547 20.6333 68.4547 20.4C68.1214 20.2667 67.8547 20.1333 67.6547 20C67.4547 19.8667 67.3047 19.6333 67.2047 19.3C67.138 18.9667 67.1047 18.4667 67.1047 17.8C67.838 18.1667 68.7047 18.4667 69.7047 18.7C70.7047 18.9 71.7047 19.0333 72.7047 19.1C73.7047 19.1667 74.538 19.2 75.2047 19.2C76.2047 19.2 77.1714 19.1667 78.1047 19.1C79.0714 19 79.938 18.8167 80.7047 18.55C81.4714 18.25 82.0714 17.8167 82.5047 17.25C82.9714 16.6833 83.2047 15.9333 83.2047 15C83.2047 13.6333 82.8547 12.7667 82.1547 12.4C81.4547 12 80.5047 11.8 79.3047 11.8H74.2547C73.0214 11.8 71.8547 11.7333 70.7547 11.6C69.688 11.4333 68.8047 11.0167 68.1047 10.35C67.438 9.65 67.1047 8.48333 67.1047 6.85C67.1047 5.08333 67.538 3.76667 68.4047 2.9C69.2714 2.03333 70.488 1.46667 72.0547 1.2C73.6547 0.933332 75.5047 0.799999 77.6047 0.799999C78.3714 0.799999 79.288 0.816666 80.3547 0.849999C81.4214 0.883333 82.438 0.983333 83.4047 1.15C84.0714 1.25 84.6214 1.38333 85.0547 1.55C85.5214 1.68333 85.8547 1.88333 86.0547 2.15C86.288 2.41667 86.4047 2.8 86.4047 3.3V4.3C86.1047 3.96667 85.6047 3.7 84.9047 3.5C84.2047 3.3 83.388 3.15 82.4547 3.05C81.5547 2.95 80.6214 2.9 79.6547 2.9C78.688 2.86667 77.788 2.85 76.9547 2.85C75.888 2.85 74.8547 2.91667 73.8547 3.05C72.8547 3.18333 72.038 3.51667 71.4047 4.05C70.8047 4.55 70.5047 5.41667 70.5047 6.65C70.5047 7.58333 70.7047 8.26667 71.1047 8.7C71.5047 9.13333 72.038 9.41667 72.7047 9.55C73.4047 9.65 74.188 9.7 75.0547 9.7H80.2047C81.4714 9.7 82.588 9.81667 83.5547 10.05C84.5547 10.25 85.3214 10.7333 85.8547 11.5C86.4214 12.2333 86.7047 13.4 86.7047 15C86.7047 16.7667 86.2214 18.1 85.2547 19C84.288 19.9 82.9547 20.5 81.2547 20.8C79.588 21.0667 77.688 21.2 75.5547 21.2ZM91.1145 26.35L91.1645 5.25C91.1645 4.31667 91.1478 3.51667 91.1145 2.85C91.1145 2.15 91.0978 1.7 91.0645 1.5C91.2978 1.43333 91.7645 1.36667 92.4645 1.3C93.1645 1.23333 93.9645 1.18333 94.8645 1.15C95.7645 1.08333 96.6811 1.03333 97.6145 1C98.5811 0.933333 99.4478 0.899999 100.214 0.899999C102.914 0.899999 105.014 1.26667 106.514 2C108.048 2.7 109.131 3.81667 109.764 5.35C110.398 6.88333 110.648 8.86667 110.514 11.3C110.448 13.7 110.131 15.6333 109.564 17.1C108.998 18.5333 108.081 19.5833 106.814 20.25C105.548 20.8833 103.814 21.2 101.614 21.2C100.281 21.2 99.0645 21.0667 97.9645 20.8C96.8978 20.5333 96.0311 20.0833 95.3645 19.45C94.6978 18.7833 94.2645 17.8333 94.0645 16.6L94.6645 16.05V26.35H91.1145ZM100.914 19.1C102.981 19.1 104.514 18.4833 105.514 17.25C106.514 16.0167 107.014 13.9333 107.014 11C107.081 8.03333 106.614 5.95 105.614 4.75C104.614 3.55 102.814 2.95 100.214 2.95C99.7145 2.95 99.0811 2.96667 98.3145 3C97.5811 3.03333 96.8645 3.08333 96.1645 3.15C95.4978 3.18333 94.9978 3.23333 94.6645 3.3V13.3C94.6645 14.8667 94.9145 16.0667 95.4145 16.9C95.9478 17.7333 96.6811 18.3167 97.6145 18.65C98.5478 18.95 99.6478 19.1 100.914 19.1ZM125.221 21.3C123.288 21.3 121.655 21.1667 120.321 20.9C119.021 20.6333 117.971 20.1333 117.171 19.4C116.405 18.6667 115.838 17.65 115.471 16.35C115.138 15.0167 114.971 13.3 114.971 11.2C114.971 8.8 115.271 6.83333 115.871 5.3C116.471 3.76667 117.538 2.63333 119.071 1.9C120.605 1.16667 122.755 0.799999 125.521 0.799999C127.655 0.799999 129.355 1.08333 130.621 1.65C131.921 2.21667 132.855 3.08333 133.421 4.25C134.021 5.41667 134.321 6.93333 134.321 8.8V11.65H120.221C120.221 11.25 120.321 10.9167 120.521 10.65C120.721 10.35 121.088 10.2 121.621 10.2H131.171L131.121 8.75C131.088 6.68333 130.638 5.18333 129.771 4.25C128.938 3.31667 127.471 2.85 125.371 2.85C123.605 2.85 122.221 3.11667 121.221 3.65C120.221 4.18333 119.521 5.05 119.121 6.25C118.721 7.45 118.521 9.08333 118.521 11.15C118.521 13.35 118.738 15.0333 119.171 16.2C119.638 17.3333 120.405 18.1167 121.471 18.55C122.538 18.95 123.988 19.15 125.821 19.15C126.455 19.15 127.171 19.1333 127.971 19.1C128.805 19.0333 129.638 18.9667 130.471 18.9C131.305 18.8333 132.038 18.75 132.671 18.65C133.338 18.5167 133.805 18.3833 134.071 18.25V18.85C134.071 19.1833 133.971 19.5 133.771 19.8C133.605 20.1 133.238 20.35 132.671 20.55C131.938 20.85 130.938 21.05 129.671 21.15C128.438 21.25 126.955 21.3 125.221 21.3ZM142.514 21H140.314C139.88 21 139.547 20.9 139.314 20.7C139.114 20.4667 139.014 20.05 139.014 19.45V2.05C139.747 1.81667 140.747 1.56667 142.014 1.3C143.314 1.03333 144.914 0.899999 146.814 0.899999C148.614 0.899999 150.03 1.03333 151.064 1.3C152.13 1.53333 152.897 1.86667 153.364 2.3C153.864 2.73333 154.18 3.26667 154.314 3.9C154.48 4.5 154.564 5.18333 154.564 5.95H151.214L151.164 5.25C151.13 4.48333 150.88 3.93333 150.414 3.6C149.947 3.23333 149.397 3.01667 148.764 2.95C148.13 2.85 147.497 2.8 146.864 2.8C145.897 2.8 145.03 2.88333 144.264 3.05C143.53 3.21667 142.947 3.43333 142.514 3.7V21Z" fill="black"/>
</svg>
